<svg viewBox="0 0 341 85" fill="none"
	xmlns="http://www.w3.org/2000/svg">
	<path fill-rule="evenodd" clip-rule="evenodd" d="M129.767 61.6642C129.537 61.6642 129.337 61.4617 129.337 61.2318V38.2372C129.337 34.8157 128.236 31.9206 126.037 29.552C123.838 27.1834 121.022 25.9991 117.59 25.9991C114.16 25.9991 111.344 27.1715 109.143 29.5192C106.943 31.8659 105.844 34.7719 105.844 38.2372V61.2318C105.844 61.4617 105.643 61.6642 105.414 61.6642H99.563C99.334 61.6642 99.1323 61.4617 99.1323 61.2318V20.9015C99.1323 20.6724 99.334 20.4717 99.563 20.4717H105.414C105.643 20.4717 105.844 20.6724 105.844 20.9015V24.7482C108.042 23.0374 109.962 21.8504 111.588 21.1934C113.564 20.3193 115.764 19.8796 118.177 19.8796C123.1 19.8796 127.277 21.6451 130.707 25.1761C134.137 28.708 135.851 32.9516 135.851 37.9088V61.2318C135.851 61.4617 135.65 61.6642 135.421 61.6642H129.767Z" fill="#CD3144"/>
	<path fill-rule="evenodd" clip-rule="evenodd" d="M152.482 30.4069C149.345 33.3467 147.798 36.9215 147.843 41.1323C147.887 45.2555 149.368 48.7655 152.285 51.6615C155.202 54.5575 158.723 56.0046 162.846 56.0046C166.356 56.0046 169.69 55.3458 172.849 54.031C176.271 52.5639 178.537 50.6241 179.652 48.2153C179.794 47.9069 180.099 47.8504 180.342 48.0867L184.064 51.6962C184.173 51.8029 184.214 52.083 184.14 52.2144C182.333 55.4507 179.512 57.9425 175.679 59.6889C172.081 61.3996 168.089 62.2546 163.702 62.2546C157.559 62.2546 152.307 60.2263 147.941 56.1679C143.577 52.1104 141.394 47.0995 141.394 41.1323C141.394 35.2108 143.588 30.188 147.974 26.0639C152.361 21.9416 157.603 19.8796 163.702 19.8796C170.283 19.9234 175.437 21.4142 179.166 24.3531C183.598 27.8184 185.812 33.1934 185.812 40.4745C185.812 41.2263 185.796 42.0091 185.765 42.8248C185.755 43.042 185.551 43.2381 185.333 43.2381H154.589C154.361 43.2381 154.16 43.0374 154.16 42.8084V38.4051C154.16 38.1761 154.361 37.9745 154.589 37.9745H178.506C178.52 37.9526 178.542 37.9106 178.55 37.886C177.322 29.9462 172.387 25.9991 163.701 25.9991C159.359 25.9991 155.619 27.4681 152.482 30.4069Z" fill="#CD3144"/>
	<path fill-rule="evenodd" clip-rule="evenodd" d="M212.039 26.3932C207.828 26.3932 204.252 27.7974 201.313 30.6049C198.372 33.4124 196.904 36.9005 196.904 41.0675C196.904 45.2345 198.351 48.7117 201.247 51.4973C203.791 53.9434 206.825 55.3157 210.349 55.6131C210.552 55.6314 210.745 55.8385 210.745 56.042V61.4672C210.745 61.7126 210.537 61.9097 210.294 61.8969C204.893 61.6396 200.244 59.6396 196.346 55.9069C192.156 51.8923 190.061 46.9462 190.061 41.0684C190.061 37.7345 190.828 34.5538 192.364 31.5274C194.207 28.0173 196.794 25.2984 200.129 23.3686C203.463 21.437 207.148 20.4726 211.183 20.4726H227.139C227.368 20.4726 227.569 20.6734 227.569 20.9024V61.2336C227.569 61.4635 227.368 61.6642 227.139 61.6642H221.616C221.387 61.6642 221.185 61.4635 221.185 61.2336V26.3932H212.039Z" fill="#CD3144"/>
	<path fill-rule="evenodd" clip-rule="evenodd" d="M242.162 38.2372V61.2318C242.162 61.4617 241.961 61.6642 241.732 61.6642H235.88C235.651 61.6642 235.45 61.4617 235.45 61.2318V20.9015C235.45 20.6724 235.651 20.4708 235.88 20.4708H241.732C241.961 20.4708 242.162 20.6724 242.162 20.9015V24.7482C244.361 23.0374 246.282 21.8504 247.909 21.1925C249.885 20.3184 252.086 19.8796 254.499 19.8796C258.168 19.8796 261.399 20.8239 264.193 22.7162C264.467 22.8996 264.478 23.2044 264.222 23.4088C263.701 23.8248 263.188 24.2673 262.69 24.7372C261.8 25.573 260.999 26.4462 260.291 27.3568C260.177 27.5037 259.899 27.5584 259.736 27.4653C258.035 26.4881 256.09 25.9991 253.906 25.9991C250.52 25.9991 247.714 27.1715 245.494 29.5182C243.273 31.8659 242.162 34.7719 242.162 38.2372Z" fill="#CD3144"/>
	<path fill-rule="evenodd" clip-rule="evenodd" d="M269.392 30.4069C266.255 33.3467 264.708 36.9215 264.754 41.1323C264.797 45.2555 266.277 48.7655 269.193 51.6615C272.11 54.5575 275.633 56.0046 279.755 56.0046C283.265 56.0046 286.599 55.3458 289.758 54.031C293.18 52.5639 295.449 50.6241 296.562 48.2153C296.705 47.9069 297.008 47.8504 297.252 48.0867L300.973 51.6962C301.083 51.8029 301.124 52.083 301.049 52.2144C299.244 55.4507 296.422 57.9425 292.589 59.6889C288.991 61.3996 284.999 62.2546 280.612 62.2546C274.471 62.2546 269.218 60.2263 264.851 56.1679C260.487 52.1104 258.305 47.0995 258.305 41.1323C258.305 35.2108 260.498 30.188 264.886 26.0639C269.271 21.9416 274.514 19.8796 280.612 19.8796C287.193 19.9234 292.346 21.4142 296.076 24.3531C300.506 27.8184 302.721 33.1934 302.721 40.4745C302.721 41.2263 302.705 42.0091 302.673 42.8248C302.666 43.042 302.461 43.2381 302.244 43.2381H271.5C271.272 43.2381 271.07 43.0374 271.07 42.8084V38.4051C271.07 38.1761 271.272 37.9745 271.5 37.9745H295.418C295.431 37.9526 295.453 37.9106 295.461 37.886C294.234 29.9462 289.297 25.9991 280.612 25.9991C276.268 25.9991 272.528 27.4681 269.392 30.4069Z" fill="#CD3144"/>
	<path fill-rule="evenodd" clip-rule="evenodd" d="M314.829 38.2372V61.2318C314.829 61.4617 314.627 61.6642 314.397 61.6642H308.547C308.317 61.6642 308.116 61.4617 308.116 61.2318V20.9015C308.116 20.6724 308.317 20.4708 308.547 20.4708H314.397C314.627 20.4708 314.829 20.6724 314.829 20.9015V24.7482C317.027 23.0374 318.948 21.8504 320.575 21.1925C322.551 20.3184 324.752 19.8796 327.165 19.8796C332.575 19.8796 337.036 21.9361 340.549 26.0529C340.742 26.2783 340.689 26.5675 340.429 26.7099L335.373 29.4599C335.24 29.531 334.963 29.4891 334.859 29.3832C332.653 27.1277 329.892 25.9991 326.573 25.9991C323.185 25.9991 320.383 27.1715 318.16 29.5182C315.939 31.8659 314.829 34.7719 314.829 38.2372Z" fill="#CD3144"/>
	<path fill-rule="evenodd" clip-rule="evenodd" d="M71 40C71 23.4315 57.5685 10 41 10C24.4315 10 11 23.4315 11 40C11 56.5685 24.4315 70 41 70C57.5685 70 71 56.5685 71 40ZM16 40C16 26.1929 27.1929 15 41 15C54.8071 15 66 26.1929 66 40C66 53.8071 54.8071 65 41 65C27.1929 65 16 53.8071 16 40Z" fill="#BBBBBB"/>
	<path d="M54.7678 45.2322L70.7678 61.2322L67.2322 64.7678L51.2322 48.7678L54.7678 45.2322Z" fill="white"/>
	<path d="M50.7678 49.2322L66.7678 65.2322L63.2322 68.7678L47.2322 52.7678L50.7678 49.2322Z" fill="white"/>
	<path fill-rule="evenodd" clip-rule="evenodd" d="M61 40C61 28.9543 52.0457 20 41 20C29.9543 20 21 28.9543 21 40C21 51.0457 29.9543 60 41 60C52.0457 60 61 51.0457 61 40ZM26 40C26 31.7157 32.7157 25 41 25C49.2843 25 56 31.7157 56 40C56 48.2843 49.2843 55 41 55C32.7157 55 26 48.2843 26 40Z" fill="#CD3144"/>
	<path d="M54.7678 49.2322L70.7678 65.2322L67.2322 68.7678L51.2322 52.7678L54.7678 49.2322Z" fill="#CD3144"/>
</svg>
